<?xml version="1.0" encoding="UTF-8" standalone="no" ?>
<!DOCTYPE svg PUBLIC "-//W3C//DTD SVG 1.1//EN" "http://www.w3.org/Gra	phics/SVG/1.1/DTD/svg11.dtd">
<svg xmlns="http://www.w3.org/2000/svg" xmlns:xlink="http://www.w3.org/1999/xlink" version="1.1" width="640" height="640" viewBox="0 0 640 640" xml:space="preserve">
<desc>Created with Fabric.js 4.6.0</desc>
<defs>
</defs>
<g transform="matrix(1 0 0 1 372.07 315.07)" id="57F5zzlfilNNEppRO2B2x"  >
<path style="stroke: rgb(255,255,255); stroke-width: 0; stroke-dasharray: none; stroke-linecap: butt; stroke-dashoffset: 0; stroke-linejoin: miter; stroke-miterlimit: 4; fill: rgb(255,255,255); fill-rule: nonzero; opacity: 1;" vector-effect="non-scaling-stroke"  transform=" translate(-44.82, -44.82)" d="M 44.81793 0 C 69.55743 0 89.63586 20.07843 89.63586 44.81793 C 89.63586 69.55743 69.55743 89.63586 44.81793 89.63586 C 20.078429999999997 89.63586 0 69.55743 0 44.81793 C 0 20.078429999999997 20.07843 0 44.81793 0 z" stroke-linecap="round" />
</g>
<g transform="matrix(0.51 0 0 0.51 372.07 398.88)" id="ZMUi-yMPSApgOkMinihe4"  >
<g style="" vector-effect="non-scaling-stroke"   >
		<g transform="matrix(33.33 0 0 33.33 0 0)" id="2gLJeC3MbB7zIOBCEZHMh"  >
<path style="stroke: none; stroke-width: 1; stroke-dasharray: none; stroke-linecap: butt; stroke-dashoffset: 0; stroke-linejoin: miter; stroke-miterlimit: 4; fill: rgb(0,0,0); fill-rule: nonzero; opacity: 0;" vector-effect="non-scaling-stroke"  transform=" translate(-12, -12)" d="M 0 24 L 0 0 L 24 0 L 24 24 z" stroke-linecap="round" />
</g>
		<g transform="matrix(33.33 0 0 33.33 0 -166.67)" id="KCRZXobjKb6bihNd436DZ"  >
<path style="stroke: none; stroke-width: 1; stroke-dasharray: none; stroke-linecap: butt; stroke-dashoffset: 0; stroke-linejoin: miter; stroke-miterlimit: 4; fill: rgb(0,0,0); fill-rule: nonzero; opacity: 1;" vector-effect="non-scaling-stroke"  transform=" translate(-12, -7)" d="M 12 11 C 14.209138999323173 11 16 9.209138999323173 16 7 C 16 4.790861000676826 14.209138999323173 3 12 3 C 9.790861000676827 3 8 4.790861000676825 8 6.999999999999999 C 8 9.209138999323173 9.790861000676827 11 12 11 z M 12 5 C 13.104569499661586 5 14 5.895430500338413 14 7 C 14 8.104569499661586 13.104569499661588 9 12 9 C 10.895430500338414 9 10 8.104569499661588 10 7.000000000000001 C 10 5.8954305003384135 10.895430500338414 5 12 5 z" stroke-linecap="round" />
</g>
		<g transform="matrix(33.33 0 0 33.33 0 166.67)" id="wTIZc0jEiqacE7xWce2c6"  >
<path style="stroke: none; stroke-width: 1; stroke-dasharray: none; stroke-linecap: butt; stroke-dashoffset: 0; stroke-linejoin: miter; stroke-miterlimit: 4; fill: rgb(0,0,0); fill-rule: nonzero; opacity: 1;" vector-effect="non-scaling-stroke"  transform=" translate(-12, -17)" d="M 12 13 C 8.134006751184446 13 5 16.134006751184444 5 20 C 5 20.552284749830793 5.447715250169207 21 6 21 C 6.552284749830793 21 7 20.552284749830793 7 20 C 7 17.238576250846034 9.238576250846034 15 12 15 C 14.761423749153966 15 17 17.23857625084603 17 20 C 17 20.552284749830793 17.447715250169207 21 18 21 C 18.552284749830793 21 19 20.552284749830793 19 20 C 19 16.134006751184444 15.865993248815554 13 12 13 z" stroke-linecap="round" />
</g>
</g>
</g>
<g transform="matrix(1 0 0 1 -125.34 148.97)" id="PbpsyCtHhkrDgte5KqQFc"  >
<path style="stroke: rgb(255,255,255); stroke-width: 0; stroke-dasharray: none; stroke-linecap: butt; stroke-dashoffset: 0; stroke-linejoin: miter; stroke-miterlimit: 4; fill: rgb(255,255,255); fill-rule: nonzero; opacity: 1;" vector-effect="non-scaling-stroke"  transform=" translate(0, 0)" d="M -44.81793 -25.80329 C -44.81793 -36.30478 -36.30479 -44.817930000000004 -25.803289999999997 -44.817930000000004 L 25.803290000000004 -44.817930000000004 L 25.803290000000004 -44.817930000000004 C 36.30478000000001 -44.817930000000004 44.817930000000004 -36.304790000000004 44.817930000000004 -25.803290000000004 L 44.817930000000004 25.803289999999997 L 44.817930000000004 25.803289999999997 C 44.817930000000004 36.304779999999994 36.304790000000004 44.81793 25.803290000000004 44.81793 L -25.803289999999997 44.81793 L -25.803289999999997 44.81793 C -36.304779999999994 44.81793 -44.81793 36.30479 -44.81793 25.803289999999997 z" stroke-linecap="round" />
</g>
<g transform="matrix(0.74 0.67 -0.67 0.74 177.02 392.66)" id="ivslPvNelrj5N3vyl2eWS"  >
<path style="stroke: rgb(0,0,0); stroke-width: 0; stroke-dasharray: none; stroke-linecap: butt; stroke-dashoffset: 0; stroke-linejoin: miter; stroke-miterlimit: 4; fill: rgb(255,255,255); fill-rule: nonzero; opacity: 1;" vector-effect="non-scaling-stroke"  transform=" translate(-25.1, -4.93)" d="M 0 0 L 50.19608 0 L 50.19608 9.85994 L 0 9.85994 z" stroke-linecap="round" />
</g>
<g transform="matrix(4.89 0 0 4.89 372.07 189.34)" id="jIRx31YJ6leC1ZA8iK-JK"  >
<path style="stroke: rgb(0,0,0); stroke-width: 14; stroke-dasharray: none; stroke-linecap: round; stroke-dashoffset: 0; stroke-linejoin: round; stroke-miterlimit: 4; fill: rgb(255,255,255); fill-rule: nonzero; opacity: 1;" vector-effect="non-scaling-stroke"  transform=" translate(0, 0)" d="M 0 16 C 11.0457 16 20 14.2091 20 12 C 20 10.5611 16.7012 9.2997 11 8.594899999999999 L 3 -12 L -9 -16 L -6 -10 L -11 8.594899999999999 C -16.7012 9.2997 -20 10.5611 -20 12 C -20 14.2091 -11.0457 16 0 16 z" stroke-linecap="round" />
</g>
<g transform="matrix(4.54 0 0 4.54 159.09 384.14)" id="QMJiv27nRTL_lS0__FfCu"  >
<path style="stroke: rgb(0,0,0); stroke-width: 1; stroke-dasharray: none; stroke-linecap: butt; stroke-dashoffset: 0; stroke-linejoin: miter; stroke-miterlimit: 4; fill: rgb(0,0,0); fill-rule: nonzero; opacity: 1;" vector-effect="non-scaling-stroke"  transform=" translate(-27.88, -27.87)" d="M 21.8712 15.5664 C 22.1524 15.5664 22.293 15.4024 22.3399 15.1445 C 23.1368 11.3945 23.0899 11.2539 27.004 10.457 C 27.2852 10.4102 27.4493 10.2461 27.4493 9.9883 C 27.4493 9.707 27.2852 9.5429 27.004 9.4961 C 23.0899 8.6992 23.1368 8.5586 22.3399 4.832 C 22.293 4.5742 22.1524 4.3867 21.8712 4.3867 C 21.5899 4.3867 21.4493 4.5742 21.379 4.832 C 20.6055 8.5586 20.6524 8.6992 16.7149 9.4961 C 16.4571 9.5429 16.2696 9.707 16.2696 9.9883 C 16.2696 10.2461 16.4571 10.4102 16.7149 10.457 C 20.6524 11.2539 20.6055 11.3945 21.379 15.1445 C 21.4493 15.4024 21.5899 15.5664 21.8712 15.5664 Z M 41.2306 23.8398 C 41.5587 23.8398 41.7462 23.6289 41.793 23.3242 C 42.6134 18.8711 42.6368 18.5898 47.3475 17.7695 C 47.6523 17.7227 47.8866 17.5117 47.8866 17.1836 C 47.8866 16.8555 47.6523 16.668 47.3475 16.5976 C 42.6368 15.8008 42.6134 15.5195 41.793 11.0664 C 41.7462 10.7617 41.5587 10.5273 41.2306 10.5273 C 40.9024 10.5273 40.6915 10.7617 40.6446 11.0664 C 39.8477 15.5195 39.8243 15.8008 35.1134 16.5976 C 34.7852 16.668 34.5743 16.8555 34.5743 17.1836 C 34.5743 17.5117 34.7852 17.7227 35.1134 17.7695 C 39.8243 18.5898 39.8477 18.8711 40.6446 23.3242 C 40.6915 23.6289 40.9024 23.8398 41.2306 23.8398 Z M 9.0274 30.5664 C 9.3555 30.5664 9.543 30.332 9.5899 30.0273 C 10.4102 25.5742 10.4337 25.2929 15.1446 24.4961 C 15.4493 24.4258 15.6837 24.2383 15.6837 23.9102 C 15.6837 23.582 15.4493 23.3711 15.1446 23.3242 C 10.4337 22.5039 10.4102 22.2227 9.5899 17.7695 C 9.543 17.4649 9.3555 17.2539 9.0274 17.2539 C 8.6993 17.2539 8.4884 17.4649 8.4415 17.7695 C 7.6212 22.2227 7.6212 22.5039 2.9102 23.3242 C 2.5821 23.3711 2.3712 23.582 2.3712 23.9102 C 2.3712 24.2383 2.5821 24.4258 2.9102 24.4961 C 7.6212 25.2929 7.6212 25.5742 8.4415 30.0273 C 8.4884 30.332 8.6993 30.5664 9.0274 30.5664 Z M 49.0352 50.6055 C 50.0432 51.6133 51.7304 51.6133 52.6448 50.6055 C 53.6288 49.5742 53.6288 47.9805 52.6448 46.9961 L 30.379 24.6367 C 29.3946 23.6524 27.7071 23.6524 26.7696 24.6367 C 25.7852 25.668 25.8087 27.2851 26.7696 28.2695 Z M 35.4181 34.5039 L 28.5508 27.6133 C 28.129 27.1914 28.0118 26.7461 28.4102 26.3242 C 28.8087 25.9492 29.254 26.0429 29.6993 26.4883 L 36.5899 33.3789 Z M 20.1602 50.9805 C 20.5821 50.9805 20.8868 50.6758 20.9337 50.2305 C 21.7071 43.9727 22.0118 43.8086 28.3634 42.7773 C 28.879 42.6836 29.1837 42.4492 29.1837 41.9805 C 29.1837 41.5352 28.879 41.2539 28.4571 41.1836 C 22.0587 39.9649 21.7071 39.9883 20.9337 33.7305 C 20.8868 33.2851 20.5821 32.9805 20.1602 32.9805 C 19.7149 32.9805 19.4102 33.2851 19.3634 33.707 C 18.543 40.0586 18.3087 40.2695 11.8399 41.1836 C 11.4181 41.2305 11.1134 41.5352 11.1134 41.9805 C 11.1134 42.4258 11.4181 42.6836 11.8399 42.7773 C 18.3087 44.0195 18.5196 44.0195 19.3634 50.2773 C 19.4102 50.6758 19.7149 50.9805 20.1602 50.9805 Z" stroke-linecap="round" />
</g>
<g transform="matrix(2.83 0 0 2.83 372.07 223.56)" id="eZqNuYaZ4H94MTKf0jHOM"  >
<path style="stroke: rgb(50,195,131); stroke-width: 7; stroke-dasharray: none; stroke-linecap: round; stroke-dashoffset: 0; stroke-linejoin: round; stroke-miterlimit: 4; fill: none; fill-rule: nonzero; opacity: 1;" vector-effect="non-scaling-stroke"  transform=" translate(0, 0)" d="M 0 -4 L 0 4 M -4 0 L 4 0 M 10 0 C 10 5.5228 5.5228 10 0 10 C -5.52285 10 -10 5.5228 -10 0 C -10 -5.52285 -5.52285 -10 0 -10 C 5.5228 -10 10 -5.52285 10 0 z" stroke-linecap="round" />
</g>
<g transform="matrix(1 0 0 1 133.03 185.07)" id="x0RhlZocZ1jeMfj6K4VVL"  >
<path style="stroke: rgb(0,0,0); stroke-width: 1; stroke-dasharray: none; stroke-linecap: butt; stroke-dashoffset: 0; stroke-linejoin: miter; stroke-miterlimit: 4; fill: rgb(255,255,255); fill-opacity: 0; fill-rule: nonzero; opacity: 1;" vector-effect="non-scaling-stroke"  transform=" translate(0, 0)" d="M 0 0" stroke-linecap="round" />
</g>
</svg>